<?xml version="1.0" encoding="UTF-8" standalone="no"?>
<svg width="24px" height="120px" viewBox="0 0 24 120" version="1.1" xmlns="http://www.w3.org/2000/svg" xmlns:xlink="http://www.w3.org/1999/xlink" xmlns:sketch="http://www.bohemiancoding.com/sketch/ns">
    <title>Extension Icon</title>
    <description>Created with Sketch (http://www.bohemiancoding.com/sketch)</description>
    <defs></defs>
    <g id="Page 1" stroke="none" stroke-width="1" fill="none" fill-rule="evenodd">
        <path d="M11.76,3 L11.47,3 C10.91,3 10.45,3.45 10.45,4 L10.45,5.73 C9.86,5.87 9.3,6.1 8.8,6.4 L7.34,5.46 C6.94,5.07 6.29,5.07 5.89,5.46 L5.16,6.17 C4.76,6.55 4.76,7.19 5.16,7.58 L6.16,9.02 C5.85,9.55 5.61,10.14 5.48,10.75 L4.03,10.75 C3.46,10.75 3,11.2 3,11.75 L3,12.75 C3,13.3 3.46,13.75 4.03,13.75 L5.61,13.75 C5.79,14.35 6.08,14.91 6.44,15.41 L5.53,16.77 C5.13,17.17 5.13,17.8 5.53,18.19 L6.25,18.9 C6.65,19.28 7.3,19.28 7.7,18.89 L9.26,17.85 C9.79,18.1 9.96,18.19 10.48,18.38 L10.48,19.99 C10.48,20.55 10.93,21 11.5,21 L11.76,21 L12.24,21 L12.5,21 C13.07,21 13.52,20.55 13.52,19.99 L13.52,18.38 C14.04,18.19 14.21,18.1 14.74,17.85 L16.3,18.89 C16.7,19.28 17.35,19.28 17.75,18.9 L18.47,18.19 C18.87,17.8 18.87,17.17 18.47,16.77 L17.56,15.41 C17.92,14.91 18.21,14.35 18.39,13.75 L19.97,13.75 C20.54,13.75 21,13.3 21,12.75 L21,11.75 C21,11.2 20.54,10.75 19.97,10.75 L18.52,10.75 C18.39,10.14 18.15,9.55 17.84,9.02 L18.84,7.58 C19.24,7.19 19.24,6.55 18.84,6.17 L18.11,5.46 C17.71,5.07 17.06,5.07 16.66,5.46 L15.2,6.4 C14.7,6.1 14.14,5.87 13.55,5.73 L13.55,4 C13.55,3.45 13.09,3 12.53,3 L12.24,3 L11.76,3 Z M12.24,14.49 L12.01,14.5 L11.99,14.5 L11.76,14.49 C10.45,14.37 9.42,13.31 9.42,12 C9.42,10.69 10.45,9.63 11.76,9.51 L11.99,9.5 L12.01,9.5 L12.24,9.51 C13.55,9.63 14.58,10.69 14.58,12 C14.58,13.31 13.55,14.37 12.24,14.49 L12.24,14.49 Z M12.24,14.49" id="Icon" fill="#BBBBBB"></path>
        <path d="M11.76,27 L11.47,27 C10.91,27 10.45,27.45 10.45,28 L10.45,29.73 C10.3262205,29.7593714 10.2037615,29.7927041 10.0828999,29.8298134 C9.62766967,29.969587 9.19510215,30.1629387 8.8,30.4 L7.34,29.46 C6.94,29.07 6.29,29.07 5.89,29.46 L5.16,30.17 C4.76,30.55 4.76,31.19 5.16,31.58 L6.16,33.02 C5.85,33.55 5.61,34.14 5.48,34.75 L4.03,34.75 C3.46,34.75 3,35.2 3,35.75 L3,36.75 C3,37.3 3.46,37.75 4.03,37.75 L5.61,37.75 C5.79,38.35 6.08,38.91 6.44,39.41 L5.53,40.77 C5.13,41.17 5.13,41.8 5.53,42.19 L6.25,42.9 C6.65,43.28 7.3,43.28 7.7,42.89 L9.26,41.85 C9.79,42.1 9.96,42.19 10.48,42.38 L10.48,43.99 C10.48,44.55 10.93,45 11.5,45 L11.76,45 L12.24,45 L12.5,45 C13.07,45 13.52,44.55 13.52,43.99 L13.52,42.38 C14.04,42.19 14.21,42.1 14.74,41.85 L16.3,42.89 C16.7,43.28 17.35,43.28 17.75,42.9 L18.47,42.19 C18.87,41.8 18.87,41.17 18.47,40.77 L17.56,39.41 C17.92,38.91 18.21,38.35 18.39,37.75 L19.97,37.75 C20.54,37.75 21,37.3 21,36.75 L21,35.75 C21,35.2 20.54,34.75 19.97,34.75 L18.52,34.75 C18.39,34.14 18.15,33.55 17.84,33.02 L18.84,31.58 C19.24,31.19 19.24,30.55 18.84,30.17 L18.11,29.46 C17.71,29.07 17.06,29.07 16.66,29.46 L15.2,30.4 C14.7,30.1 14.14,29.87 13.55,29.73 L13.55,28 C13.55,27.45 13.09,27 12.53,27 L12.24,27 L11.76,27 Z M12.24,38.49 L12.01,38.5 L11.99,38.5 L11.76,38.49 C10.45,38.37 9.42,37.31 9.42,36 C9.42,34.69 10.45,33.63 11.76,33.51 L11.99,33.5 L12.01,33.5 L12.24,33.51 C13.55,33.63 14.58,34.69 14.58,36 C14.58,37.31 13.55,38.37 12.24,38.49 L12.24,38.49 Z M12.24,38.49" id="Icon Okay" fill="#94CD47"></path>
        <path d="M11.76,51 L11.47,51 C10.91,51 10.45,51.45 10.45,52 L10.45,53.73 C10.3262205,53.7593714 10.2037615,53.7927041 10.0828999,53.8298134 C9.62766967,53.969587 9.19510215,54.1629387 8.8,54.4 L7.34,53.46 C6.94,53.07 6.29,53.07 5.89,53.46 L5.16,54.17 C4.76,54.55 4.76,55.19 5.16,55.58 L6.16,57.02 C5.85,57.55 5.61,58.14 5.48,58.75 L4.03,58.75 C3.46,58.75 3,59.2 3,59.75 L3,60.75 C3,61.3 3.46,61.75 4.03,61.75 L5.61,61.75 C5.79,62.35 6.08,62.91 6.44,63.41 L5.53,64.77 C5.13,65.17 5.13,65.8 5.53,66.19 L6.25,66.9 C6.65,67.28 7.3,67.28 7.7,66.89 L9.26,65.85 C9.79,66.1 9.96,66.19 10.48,66.38 L10.48,67.99 C10.48,68.55 10.93,69 11.5,69 L11.76,69 L12.24,69 L12.5,69 C13.07,69 13.52,68.55 13.52,67.99 L13.52,66.38 C14.04,66.19 14.21,66.1 14.74,65.85 L16.3,66.89 C16.7,67.28 17.35,67.28 17.75,66.9 L18.47,66.19 C18.87,65.8 18.87,65.17 18.47,64.77 L17.56,63.41 C17.92,62.91 18.21,62.35 18.39,61.75 L19.97,61.75 C20.54,61.75 21,61.3 21,60.75 L21,59.75 C21,59.2 20.54,58.75 19.97,58.75 L18.52,58.75 C18.39,58.14 18.15,57.55 17.84,57.02 L18.84,55.58 C19.24,55.19 19.24,54.55 18.84,54.17 L18.11,53.46 C17.71,53.07 17.06,53.07 16.66,53.46 L15.2,54.4 C14.7,54.1 14.14,53.87 13.55,53.73 L13.55,52 C13.55,51.45 13.09,51 12.53,51 L12.24,51 L11.76,51 Z M12.24,62.49 L12.01,62.5 L11.99,62.5 L11.76,62.49 C10.45,62.37 9.42,61.31 9.42,60 C9.42,58.69 10.45,57.63 11.76,57.51 L11.99,57.5 L12.01,57.5 L12.24,57.51 C13.55,57.63 14.58,58.69 14.58,60 C14.58,61.31 13.55,62.37 12.24,62.49 L12.24,62.49 Z M12.24,62.49" id="Icon On" fill="#78B2F2"></path>
        <path d="M11.76,75 L11.47,75 C10.91,75 10.45,75.45 10.45,76 L10.45,77.73 C10.3262205,77.7593714 10.2037615,77.7927041 10.0828999,77.8298134 C9.62766967,77.969587 9.19510215,78.1629387 8.8,78.4 L7.34,77.46 C6.94,77.07 6.29,77.07 5.89,77.46 L5.16,78.17 C4.76,78.55 4.76,79.19 5.16,79.58 L6.16,81.02 C5.85,81.55 5.61,82.14 5.48,82.75 L4.03,82.75 C3.46,82.75 3,83.2 3,83.75 L3,84.75 C3,85.3 3.46,85.75 4.03,85.75 L5.61,85.75 C5.79,86.35 6.08,86.91 6.44,87.41 L5.53,88.77 C5.13,89.17 5.13,89.8 5.53,90.19 L6.25,90.9 C6.65,91.28 7.3,91.28 7.7,90.89 L9.26,89.85 C9.79,90.1 9.96,90.19 10.48,90.38 L10.48,91.99 C10.48,92.55 10.93,93 11.5,93 L11.76,93 L12.24,93 L12.5,93 C13.07,93 13.52,92.55 13.52,91.99 L13.52,90.38 C14.04,90.19 14.21,90.1 14.74,89.85 L16.3,90.89 C16.7,91.28 17.35,91.28 17.75,90.9 L18.47,90.19 C18.87,89.8 18.87,89.17 18.47,88.77 L17.56,87.41 C17.92,86.91 18.21,86.35 18.39,85.75 L19.97,85.75 C20.54,85.75 21,85.3 21,84.75 L21,83.75 C21,83.2 20.54,82.75 19.97,82.75 L18.52,82.75 C18.39,82.14 18.15,81.55 17.84,81.02 L18.84,79.58 C19.24,79.19 19.24,78.55 18.84,78.17 L18.11,77.46 C17.71,77.07 17.06,77.07 16.66,77.46 L15.2,78.4 C14.7,78.1 14.14,77.87 13.55,77.73 L13.55,76 C13.55,75.45 13.09,75 12.53,75 L12.24,75 L11.76,75 Z M12.24,86.49 L12.01,86.5 L11.99,86.5 L11.76,86.49 C10.45,86.37 9.42,85.31 9.42,84 C9.42,82.69 10.45,81.63 11.76,81.51 L11.99,81.5 L12.01,81.5 L12.24,81.51 C13.55,81.63 14.58,82.69 14.58,84 C14.58,85.31 13.55,86.37 12.24,86.49 L12.24,86.49 Z M12.24,86.49" id="Icon Warning" fill="#E3B551"></path>
        <path d="M11.76,99 L11.47,99 C10.91,99 10.45,99.45 10.45,100 L10.45,101.73 C10.3262205,101.759371 10.2037615,101.792704 10.0828999,101.829813 C9.62766967,101.969587 9.19510215,102.162939 8.8,102.4 L7.34,101.46 C6.94,101.07 6.29,101.07 5.89,101.46 L5.16,102.17 C4.76,102.55 4.76,103.19 5.16,103.58 L6.16,105.02 C5.85,105.55 5.61,106.14 5.48,106.75 L4.03,106.75 C3.46,106.75 3,107.2 3,107.75 L3,108.75 C3,109.3 3.46,109.75 4.03,109.75 L5.61,109.75 C5.79,110.35 6.08,110.91 6.44,111.41 L5.53,112.77 C5.13,113.17 5.13,113.8 5.53,114.19 L6.25,114.9 C6.65,115.28 7.3,115.28 7.7,114.89 L9.26,113.85 C9.79,114.1 9.96,114.19 10.48,114.38 L10.48,115.99 C10.48,116.55 10.93,117 11.5,117 L11.76,117 L12.24,117 L12.5,117 C13.07,117 13.52,116.55 13.52,115.99 L13.52,114.38 C14.04,114.19 14.21,114.1 14.74,113.85 L16.3,114.89 C16.7,115.28 17.35,115.28 17.75,114.9 L18.47,114.19 C18.87,113.8 18.87,113.17 18.47,112.77 L17.56,111.41 C17.92,110.91 18.21,110.35 18.39,109.75 L19.97,109.75 C20.54,109.75 21,109.3 21,108.75 L21,107.75 C21,107.2 20.54,106.75 19.97,106.75 L18.52,106.75 C18.39,106.14 18.15,105.55 17.84,105.02 L18.84,103.58 C19.24,103.19 19.24,102.55 18.84,102.17 L18.11,101.46 C17.71,101.07 17.06,101.07 16.66,101.46 L15.2,102.4 C14.7,102.1 14.14,101.87 13.55,101.73 L13.55,100 C13.55,99.45 13.09,99 12.53,99 L12.24,99 L11.76,99 Z M12.24,110.49 L12.01,110.5 L11.99,110.5 L11.76,110.49 C10.45,110.37 9.42,109.31 9.42,108 C9.42,106.69 10.45,105.63 11.76,105.51 L11.99,105.5 L12.01,105.5 L12.24,105.51 C13.55,105.63 14.58,106.69 14.58,108 C14.58,109.31 13.55,110.37 12.24,110.49 L12.24,110.49 Z M12.24,110.49" id="Icon Error" fill="#F74687"></path>
    </g>
</svg>
